<svg xmlns="http://www.w3.org/2000/svg" viewBox="0 0 700 332" height="332" width="700">
	<defs>
		<clipPath id="developer-mask">
			<rect class="developer__mask" x="0" y="133.71" width="687" height="120" />
		</clipPath>
	</defs>
	<text transform="translate(-132.548 -69.911)"><tspan x="182.548" y="172.931" class="text text--designer">Designer</tspan><tspan x="182.548" dy="1em">​</tspan><tspan class="text text--developer">Developer</tspan><tspan x="182.548" dy="1em">​</tspan><tspan class="text text--nerd">Nerd</tspan></text>
	<g id="designer" class="designer">
		<path class="designer__line" d="M25 29.2h550v1H25z" />
		<path class="designer__line" d="M25 65.9h550v1H25z" />
		<path class="designer__line" d="M25 102.6h550v1H25z" />
		<path class="designer__path" d="M77.54 103.02c23.052 0 36.108-15.81 36.108-36.822 0-21.522-12.546-36.414-36.108-36.414H58.568v73.236H77.54ZM63.566 34.068H77.54c20.196 0 31.11 12.852 31.11 32.13 0 19.176-11.118 32.538-31.11 32.538H63.566V34.068Zm105.159 64.668h-37.128V67.32h33.354v-4.284h-33.354V34.068h36.414v-4.284h-41.412v73.236h42.126v-4.284Zm64.56-15.096c0-11.22-7.038-15.912-19.176-18.462l-8.262-1.734c-9.078-1.938-17.34-4.794-17.34-14.688 0-8.058 6.63-15.81 18.972-15.81 11.424 0 19.176 7.65 19.788 18.156h5.202c-.714-13.668-11.424-22.338-24.99-22.338-14.178 0-24.072 8.976-24.072 20.196 0 12.954 10.71 16.932 19.89 18.768l8.364 1.734c11.832 2.448 16.524 6.12 16.524 14.688 0 9.792-9.078 15.708-20.4 15.708-13.77 0-20.706-7.344-21.522-18.564h-5.1c.612 13.362 10.098 22.746 26.622 22.746 16.626 0 25.5-9.588 25.5-20.4Zm20.401 19.38V29.784h-4.998v73.236h4.998Zm49.676 1.53c21.012 0 35.19-14.28 35.802-37.23H302.75v4.182h31.314c-1.836 17.544-13.056 28.662-30.702 28.662-18.666 0-31.722-14.28-31.722-33.66 0-19.38 12.546-33.864 31.008-33.864 16.524 0 26.724 9.792 30.09 22.134h5.406c-3.876-14.382-16.014-26.52-35.292-26.52-21.216 0-36.312 16.626-36.312 38.25 0 21.828 15.81 38.046 36.822 38.046Zm99.342-1.53h5.61V29.784h-4.692V95.88l-45.9-66.096h-5.61v73.236h4.692V36.822l45.9 66.198Zm64.87-4.284h-37.128V67.32H463.8v-4.284h-33.354V34.068h36.414v-4.284h-41.412v73.236h42.126v-4.284Zm19.993 4.284V72.93h19.074l20.808 30.09h5.916l-21.318-30.498c11.934-1.428 19.482-9.69 19.482-21.114 0-13.77-9.282-21.624-23.766-21.624h-25.194v73.236h4.998Zm0-69.054h19.584c11.832 0 19.38 6.222 19.38 17.442 0 11.22-7.548 17.34-19.38 17.34h-19.584V33.966Z"/>
	</g>
	<g id="developer" class="developer" transform="translate(0 -25.719)">
		<path class="developer__path" d="M52.53 223.025v-9.18l-31.62-15.606c-2.346-1.224-4.896-2.142-6.12-2.448 1.122-.306 3.57-1.224 6.12-2.448l31.62-15.504v-8.874l-43.86 21.93v10.2Zm37.298 7.65c8.466 0 14.178-4.386 15.198-11.73h.102v10.71h9.18v-74.46h-9.18v16.32l.204 12.75h-.102c-1.02-7.242-7.038-11.73-15.402-11.73-11.322 0-18.462 7.956-18.462 20.91v16.422c0 12.852 7.242 20.808 18.462 20.808Zm3.06-7.956c-7.752 0-12.342-3.774-12.342-12.954v-16.32c0-9.18 4.59-12.954 12.342-12.954 7.548 0 12.24 4.998 12.24 13.464v15.3c0 8.466-4.692 13.464-12.24 13.464Zm62.704 7.956c11.832 0 20.4-5.916 21.624-15.3h-9.18c-.918 4.488-5.61 7.344-12.444 7.344-7.956 0-13.056-5.202-13.056-13.464v-5.304h35.088v-9.996c0-12.954-8.772-21.42-22.032-21.42s-22.032 8.466-22.032 22.44v13.26c0 13.974 8.772 22.44 22.032 22.44Zm-13.056-33.864v-2.856c0-8.874 4.794-13.872 13.056-13.872s13.056 4.998 13.056 13.872v2.856Zm69.538 32.844h12.036l19.074-56.1h-9.69l-12.24 37.74c-1.428 4.488-2.346 9.078-2.958 11.322-.612-2.244-1.734-6.834-3.162-11.322l-12.24-37.74H193Zm68.509 1.02c11.832 0 20.4-5.916 21.624-15.3h-9.18c-.918 4.488-5.61 7.344-12.444 7.344-7.956 0-13.056-5.202-13.056-13.464v-5.304h35.088v-9.996c0-12.954-8.772-21.42-22.032-21.42s-22.032 8.466-22.032 22.44v13.26c0 13.974 8.772 22.44 22.032 22.44Zm-13.056-33.864v-2.856c0-8.874 4.794-13.872 13.056-13.872s13.056 4.998 13.056 13.872v2.856Zm83.717 32.844h17.34v-8.364h-17.34c-4.386 0-7.14-2.856-7.14-7.446v-58.65h-28.56v8.364h19.38v50.286c0 9.588 6.426 15.81 16.32 15.81Zm54.34.816c13.464 0 22.032-8.262 22.032-22.44v-12.852c0-14.28-8.466-22.44-22.032-22.44s-22.032 8.16-22.032 22.44v12.852c0 14.178 8.568 22.44 22.032 22.44Zm0-8.16c-7.956 0-12.852-4.59-12.852-13.26v-14.892c0-8.67 4.896-13.26 12.852-13.26s12.852 4.59 12.852 13.26v14.892c0 8.67-4.896 13.26-12.852 13.26Zm41.275 25.704h9.18v-16.32l-.204-12.75h.306c1.02 7.242 6.834 11.73 15.198 11.73 11.322 0 18.462-7.956 18.462-20.91v-16.422c0-12.852-7.242-20.808-18.462-20.808-8.466 0-14.178 4.386-15.198 11.73h-.102v-10.71h-9.18Zm21.42-25.296c-7.548 0-12.24-4.998-12.24-13.464v-15.3c0-8.466 4.692-13.464 12.24-13.464 7.752 0 12.342 3.774 12.342 12.954v16.32c0 9.18-4.59 12.954-12.342 12.954Zm62.296 7.956c11.832 0 20.4-5.916 21.624-15.3h-9.18c-.918 4.488-5.61 7.344-12.444 7.344-7.956 0-13.056-5.202-13.056-13.464v-5.304h35.088v-9.996c0-12.954-8.772-21.42-22.032-21.42s-22.032 8.466-22.032 22.44v13.26c0 13.974 8.772 22.44 22.032 22.44Zm-13.056-33.864v-2.856c0-8.874 4.794-13.872 13.056-13.872s13.056 4.998 13.056 13.872v2.856Zm56.381 32.844h9.18v-35.7c0-8.67 4.284-13.464 12.342-13.464 7.752 0 11.934 3.978 11.934 12.24v4.794h9.18v-4.794c0-12.852-6.63-20.196-18.258-20.196-8.67 0-14.076 4.488-14.994 11.73h-.204v-10.71h-9.18Zm59.746-6.63 43.86-21.93v-10.2l-43.86-21.93v9.18l31.62 15.606c2.346 1.122 4.896 2.142 6.12 2.448-1.122.306-3.57 1.224-6.12 2.448l-31.62 15.504Z" clip-path="url(#developer-mask)" />
		<rect class="developer__cursor" x="0" y="133.71" width="2" height="120" />
	</g>
	<g id="futurama" class="nerd__lang nerd__lang--futurama" transform="translate(792.649 1.878)">
		<path class="nerd__letter nerd__letter--n" d="M-724.942 267.072c0 3.336 2.009 5.559 5.023 5.559 4.049 0 5.061-3.866 5.061-5.598 0-2.75-1.978-5.406-4.946-5.406-3.006 0-5.138 2.479-5.138 5.445Zm33.513.153c0 3.311 2.009 5.521 5.021 5.521 4.08 0 5.099-3.869 5.099-5.598 0-2.785-2.286-5.407-4.983-5.407-2.055 0-5.137 1.611-5.137 5.484Zm-37.31 0c.372-20.373 18.254-24.854 26.113-25l.347-.002c14.445 0 24.86 11.437 25.266 25.769-.742 14.816-11.683 23.965-26.61 23.965-14.689 0-24.838-10.724-25.116-24.732Zm-5.981-1.304c.135 16.706 11.408 32.604 31.864 33.32 12.468 0 31.171-9.421 31.171-31.519 0-18.543-15.266-30.902-30.441-30.902-26.075 0-32.432 19.908-32.594 29.101Z"/>
		<path class="nerd__letter nerd__letter--e" d="M-651.224 266.611c12.595 4.055 19.605 13.75 21.03 29.089-.634.59-1.894 1.724-1.894 4.309 0 3.313 2.007 5.521 5.022 5.521 4.049 0 5.06-3.818 5.06-5.521 0-1.738-.637-3.256-1.735-4.26 1.035-15.388 8.129-25.29 21.329-29.714-12.596-2.361-19.665-10.981-21.228-25.813.3-.336 1.634-1.653 1.634-4.133 0-3.944-3.012-5.559-5.023-5.559-2.48 0-5.059 2.224-5.059 5.559 0 1.612.46 2.953 1.416 3.988-2.568 13.846-9.439 22.668-20.552 26.534Zm10.123.077c6.416-2.935 10.963-9.573 13.639-19.91 1.961 10.861 6.631 17.382 14.007 19.566-6.802 3.663-11.353 10.237-13.664 19.708-2.45-10.074-7.111-16.532-13.982-19.364Z"/>
		<path class="nerd__letter nerd__letter--r" d="M-573.019 258.982c.798-9.435 5.673-14.152 14.592-14.152l.324.003c9.05.344 14.072 5.059 15.07 14.149-.287 5.727-2.31 9.805-6.09 12.226l-5.075-8.555c1.21-.872 1.887-2.311 2.037-4.324-.266-3.527-2.338-5.483-6.171-5.867-3.72.384-5.713 2.417-5.944 6.06.23 1.717.867 2.999 1.914 3.852l-4.822 8.583c-3.568-2.447-5.511-6.443-5.835-11.975Zm-8.932 38.267.766.077 47.036-.077h.471l-12.099-20.399c5.829-3.59 8.849-9.617 9.071-18.062-1.534-12.576-8.512-19.248-20.975-20.053-14.149.539-21.51 7.592-22.125 21.166.673 7.898 3.78 13.556 9.302 16.966l-11.447 20.382Zm11.495-5.292 6.603-12.346c1.793.459 3.735.777 5.829.958a37.078 37.078 0 0 0 5.52-.95l6.869 12.338h-24.821Zm9.885-18.482 2.277-4.255 2.418 4.341a26.8 26.8 0 0 1-2.072.22 26.136 26.136 0 0 1-2.623-.306Z"/>
		<path class="nerd__letter nerd__letter--d" d="M-513.216 246.748c.111 4.732 3.709 5.794 5.375 5.794.912 0 1.734-.14 2.463-.419l5.361 5.074c-2.357 3.115-3.537 6.772-3.537 10.985 0 3.823.834 7.148 2.504 9.996l-5.771 5.443a12.431 12.431 0 0 0-1.257-.101c-3.145.497-4.831 2.261-5.138 5.291.111 4.731 3.709 5.794 5.375 5.794 1.848 0 5.97-1.081 5.97-5.404 0-1.301-.306-2.407-.89-3.343l4.461-4.137c1.185 1.153 5.493 5.442 13.727 5.442 5.293 0 9.778-1.802 13.537-5.407l5.451 4.525c-.392.713-.639 1.556-.736 2.53.11 4.733 3.739 5.794 5.411 5.794 1.831 0 5.932-1.081 5.932-5.404 0-3.734-2.152-5.554-6.166-5.681a9.26 9.26 0 0 0-.869.179l-6.004-5.674c1.744-2.854 2.616-6.147 2.616-9.881 0-3.988-1.083-7.491-3.217-10.507l6.014-5.613c.795.33 1.695.518 2.119.518 1.845 0 5.967-1.083 5.967-5.407 0-3.75-2.186-5.554-6.205-5.679-3.145.499-4.831 2.264-5.137 5.292.016.76.119 1.452.31 2.069l-5.936 5.605c-3.573-3.239-7.805-4.875-12.625-4.875-4.989 0-9.252 1.481-12.794 4.406l-5.262-4.982c.155-.324.296-.555.296-1.835 0-3.751-2.185-5.554-6.207-5.68-3.145.499-4.831 2.264-5.138 5.292Zm15.415 21.78c0-7.817 4.934-12.731 12.959-12.731 8.643 0 13.307 4.799 13.307 13.305 0 8.395-5.409 12.462-13.229 12.462-8.395 0-13.037-5.168-13.037-13.036Z"/>
	</g>
	<g id="starwars" class="nerd__lang nerd__lang--starwars" transform="matrix(1 0 0 -1 724.025 579.91)">
		<path class="nerd__letter nerd__letter--n" d="M-572.476 272.911h-14.563l-26.403 56.69-26.209-56.69h-14.756l-1.94 2.717-1.748 2.913-2.329 4.076-1.942 4.659-1.94 4.854-1.165 5.632-1.165 6.405-.389 6.601.389 6.601.582 6.019 1.165 5.824 1.358 4.465 1.942 4.077 1.94 3.495 2.329 2.91 1.359 1.555h13.787l-2.332-2.33-1.941-2.912-1.94-3.497-1.553-3.494-1.358-4.269-1.166-5.63-.97-6.213-.39-6.214.39-6.213 1.165-6.6 1.552-5.047 1.552-3.109 1.942-2.715 26.597 58.245h14.562l33.588-72.805Z"/>
		<path class="nerd__letter nerd__letter--e" d="M-497.187 331.253h-7.182v-58.244h-14.366v58.244l-24.853-58.342h-13.976l-29.512 72.902h14.366l22.328-57.079 24.073 57.079h29.122v-14.56Z"/>
		<path class="nerd__letter nerd__letter--r" d="m-404.542 345.911-55.137-73h-17.084l43.681 58.244h-50.477l11.647 14.756h67.37Z"/>
		<path class="nerd__letter nerd__letter--d" d="m-322.602 345.911-55.14-73h-17.083l21.938 29.316h-24.463l11.455 14.368h23.49l11.262 14.56h-50.479l11.649 14.756h67.371Z"/>
	</g>
	<g id="startrek" class="nerd__lang nerd__lang--startrek" transform="translate(850.009 171.926)">
		<path class="nerd__letter nerd__letter--n" d="M-730.999 135.267c-11.401 0-18.692-.491-21.869-1.468-4.26-5.969-9.687-12.133-16.292-18.492a4000.265 4000.265 0 0 0-14.754-13.947c-4.695-4.645-7.652-8.755-8.88-12.328a4.415 4.415 0 0 1-.215-1.393c0-2.641 2.395-6.214 7.191-10.714 3.373-3.132 9.612-8.144 18.712-15.044 3.864.782 7.593 2.505 11.191 5.172 3.598 2.666 6.349 5.838 8.253 9.506-2.786 2.736-5.597 4.109-8.439 4.109-.877 0-2.981-.416-6.309-1.247-2.546-.637-4.696-.612-6.46.075-2.495.977-5.086 3.422-7.777 7.336-.05.05-.07.121-.07.221 0 .636 2.124.952 6.379.952 4.846 0 12.037-.391 21.579-1.173 3.814 1.469 6.505 4.646 8.073 9.542-1.323 1.318-3.818 1.979-7.487 1.979-4.796 0-7.657.121-8.584.366-2.741.737-4.114 2.666-4.114 5.798 0 1.028 1.323 3.403 3.963 7.122a75.115 75.115 0 0 0 10.494 11.811c5.092 4.551 10.228 7.758 15.415 9.617v2.2Z" />
		<path class="nerd__letter nerd__letter--e" d="M-666.898 63.094c.245 1.809.366 3.227.366 4.254 0 .927-.171 2.005-.512 3.228a31.163 31.163 0 0 0-.957 4.991c-14.332 0-24.215.491-29.647 1.468a4294.4 4294.4 0 0 0-3.743 17.43c-1.223 5.748-1.835 10.308-1.835 13.686 0 5.432 1.469 10.468 4.405 15.119l-8.073 11.742h-2.2c-.882-7.046-2.375-16.267-4.48-27.668-1.368-7.387-2.055-13.947-2.055-19.67 0-6.063.587-14.262 1.764-24.58 8.169 0 16.242-.161 24.215-.482 7.978-.315 12.524-.476 13.651-.476 3.473 0 6.505.321 9.101.958Z" />
		<path class="nerd__letter nerd__letter--r" d="M-588.049 74.354c-.637 0-1.98-.145-4.034-.436-2.055-.296-3.649-.441-4.771-.441-4.891 0-7.342 2.496-7.342 7.482 0 3.378 1.348 5.067 4.039 5.067.782 0 2.285-.211 4.511-.627 2.23-.416 3.979-.621 5.246-.621l1.619 1.689c-6.46 3.127-13.039 7.632-19.74 13.5-5.041 4.405-10.864 10.228-17.469 17.465a6367.608 6367.608 0 0 0-15.996 17.835h-3.669c2.446-5.773 7.703-15.63 15.776-29.577 6.114-10.519 9.176-17.535 9.176-21.058 0-2.596-3.403-6.018-10.203-10.278-5.578-3.523-12.328-6.946-20.256-10.273v-2.2c4.6 0 11.877.316 21.834.952 9.958.636 17.675.957 23.153.957 4.405 0 8.609-.15 12.623-.441 2.641 2.982 4.475 6.655 5.503 11.005Z" />
		<path class="nerd__letter nerd__letter--d" d="M-514.338 114.134c1.519 1.564 2.275 3.177 2.275 4.841 0 2.937-2.35 5.773-7.046 8.515-4.109 2.395-9.145 4.254-15.119 5.577-5.768 1.318-10.393 1.709-13.866 1.173v-5.874c11.937-1.368 17.905-5.231 17.905-11.591 0-4.355-2.791-8.71-8.364-13.064-4.7-3.669-8.785-8.099-12.257-13.286-4.305-6.359-6.46-12.353-6.46-17.975 0-3.523.857-6.776 2.571-9.762l1.248-1.614c1.077 7.532 4.425 15.265 10.052 23.188 4.014 5.728 9.467 11.791 16.367 18.201a1495.19 1495.19 0 0 0 12.694 11.671Zm-37.645-15.705c.24 3.372-.566 6.945-2.426 10.714-.927 1.859-2.711 4.721-5.357 8.584-1.954 2.837-2.931 4.771-2.931 5.799 0 1.859 2.666 2.741 7.998 2.641v9.907c-11.987-1.223-17.981-4.255-17.981-9.101 0-2.445 1.614-5.748 4.846-9.907a956.696 956.696 0 0 1 9.171-10.785c3.277-4.159 4.966-7.436 5.061-9.837l1.619 1.985Z" />
	</g>
	<g id="stargate" class="nerd__lang nerd__lang--stargate" transform="translate(974.648 177.169)">
		<path class="nerd__letter nerd__letter--n" d="M-907.634 56.831h3.305l1.652 2.153v16.071h5.005l1.653 2.154v3.203l.851 17.124-.851 20.376v11.766l-1.653 2.153h-4.155l-1.651-2.153v-14.97l.801-1.101v-1.052h-5.808l-1.652 2.153v14.97l-1.704 2.153h-4.155l-.801-1.052h-.851l.851-5.356-.851-4.307.851-5.357-.426-1.013-.425-1.139.851-7.51v-9.613l1.652-2.153h5.008l.802-12.868v-8.56l-.802-11.767c.833-2.87 1.668-4.304 2.503-4.305Z" />
		<path class="nerd__letter nerd__letter--e" d="M-843.354 58.133h3.654l2.403.201v35.997h13.318l2.403 2.703v30.792l-2.403 2.703h-3.655l-2.403-2.703v-14.72h-7.26v14.72l-2.403 2.703h-3.654l-2.403-2.703V58.334l2.403-.201Zm14.067.601h7.912v20.227h-7.912V58.734Z" />
		<path class="nerd__letter nerd__letter--r" d="M-769.462 57.007h18.475l1.701 2.153v14.919l-1.701 2.103h-18.475l-1.652-2.103V59.16l1.652-2.153Zm0 36.248h4.206l1.703 2.152v17.073h5.857v-6.408l.85-1.101-.85-1.051v-1.052c.368-5.708 1.218-8.562 2.553-8.562h3.353l1.653 2.153v33.043l-1.653 2.154h-18.473l-.851-1.052h-.851l.851-26.684v-8.513l1.652-2.152Z" />
		<path class="nerd__letter nerd__letter--d" d="m-697.092 57.599 18.72-.142 2.204 2.703v13.369l-2.204 2.703h-5.557v6.709l-1.101 1.351 1.101 1.301v8.062c4.44 0 6.659.901 6.659 2.704v32.143l-2.202 2.703h-17.724l-2.203-2.703-.038-12.209.038-14.702c0-8.043 2.22-7.936 6.659-7.936h1.101V76.232h-5.557l-2.203-2.703v-1.303c0-9.846-1.461-12.918.741-12.918l1.566-1.709Z" />
	</g>
</svg>
